<mxfile host="Electron" agent="Mozilla/5.0 (Windows NT 10.0; Win64; x64) AppleWebKit/537.36 (KHTML, like Gecko) draw.io/24.7.5 Chrome/126.0.6478.183 Electron/31.3.0 Safari/537.36" version="24.7.5">
  <diagram id="prtHgNgQTEPvFCAcTncT" name="Page-1">
    <mxGraphModel dx="1282" dy="865" grid="1" gridSize="10" guides="1" tooltips="1" connect="1" arrows="1" fold="1" page="1" pageScale="1" pageWidth="827" pageHeight="1169" math="0" shadow="0">
      <root>
        <mxCell id="0" />
        <mxCell id="1" parent="0" />
        <mxCell id="dNxyNK7c78bLwvsdeMH5-19" value="CafeteriaHCC" style="swimlane;html=1;childLayout=stackLayout;resizeParent=1;resizeParentMax=0;horizontal=0;startSize=20;horizontalStack=0;" parent="1" vertex="1">
          <mxGeometry x="120" y="120" width="2700" height="890" as="geometry" />
        </mxCell>
        <mxCell id="dNxyNK7c78bLwvsdeMH5-20" value="Caja" style="swimlane;html=1;startSize=20;horizontal=0;" parent="dNxyNK7c78bLwvsdeMH5-19" vertex="1">
          <mxGeometry x="20" width="2680" height="120" as="geometry" />
        </mxCell>
        <mxCell id="oJV0aanpe1ZfETRmAdN7-68" value="Realizar pago" style="whiteSpace=wrap;html=1;verticalAlign=top;labelBackgroundColor=#ffffff;" vertex="1" parent="dNxyNK7c78bLwvsdeMH5-20">
          <mxGeometry x="2020" y="30" width="120" height="60" as="geometry" />
        </mxCell>
        <mxCell id="oJV0aanpe1ZfETRmAdN7-70" value="Notificar a atención" style="whiteSpace=wrap;html=1;" vertex="1" parent="dNxyNK7c78bLwvsdeMH5-20">
          <mxGeometry x="2221" y="30" width="120" height="60" as="geometry" />
        </mxCell>
        <mxCell id="oJV0aanpe1ZfETRmAdN7-71" style="edgeStyle=orthogonalEdgeStyle;rounded=0;orthogonalLoop=1;jettySize=auto;html=1;entryX=0;entryY=0.5;entryDx=0;entryDy=0;dashed=1;dashPattern=8 8;" edge="1" parent="dNxyNK7c78bLwvsdeMH5-20" source="oJV0aanpe1ZfETRmAdN7-68" target="oJV0aanpe1ZfETRmAdN7-70">
          <mxGeometry relative="1" as="geometry" />
        </mxCell>
        <mxCell id="oJV0aanpe1ZfETRmAdN7-1" value="Preparación" style="swimlane;html=1;startSize=20;horizontal=0;" vertex="1" parent="dNxyNK7c78bLwvsdeMH5-19">
          <mxGeometry x="20" y="120" width="2680" height="180" as="geometry" />
        </mxCell>
        <mxCell id="oJV0aanpe1ZfETRmAdN7-52" style="edgeStyle=orthogonalEdgeStyle;rounded=0;orthogonalLoop=1;jettySize=auto;html=1;entryX=0;entryY=0.5;entryDx=0;entryDy=0;dashed=1;" edge="1" parent="oJV0aanpe1ZfETRmAdN7-1" source="oJV0aanpe1ZfETRmAdN7-49" target="oJV0aanpe1ZfETRmAdN7-51">
          <mxGeometry relative="1" as="geometry" />
        </mxCell>
        <mxCell id="oJV0aanpe1ZfETRmAdN7-49" value="Recibir la orden y preparar" style="whiteSpace=wrap;html=1;verticalAlign=top;labelBackgroundColor=#ffffff;" vertex="1" parent="oJV0aanpe1ZfETRmAdN7-1">
          <mxGeometry x="1060" y="80" width="120" height="60" as="geometry" />
        </mxCell>
        <mxCell id="oJV0aanpe1ZfETRmAdN7-51" value="Notificar a Atención" style="rounded=0;whiteSpace=wrap;html=1;" vertex="1" parent="oJV0aanpe1ZfETRmAdN7-1">
          <mxGeometry x="1250" y="80" width="120" height="60" as="geometry" />
        </mxCell>
        <mxCell id="dNxyNK7c78bLwvsdeMH5-21" value="Atención" style="swimlane;html=1;startSize=20;horizontal=0;" parent="dNxyNK7c78bLwvsdeMH5-19" vertex="1">
          <mxGeometry x="20" y="300" width="2680" height="280" as="geometry" />
        </mxCell>
        <mxCell id="oJV0aanpe1ZfETRmAdN7-29" value="Entregar Menu, notificar que volvera em 5min" style="whiteSpace=wrap;html=1;verticalAlign=top;labelBackgroundColor=#ffffff;" vertex="1" parent="dNxyNK7c78bLwvsdeMH5-21">
          <mxGeometry x="345" y="138" width="120" height="60" as="geometry" />
        </mxCell>
        <mxCell id="oJV0aanpe1ZfETRmAdN7-35" value="" style="edgeStyle=orthogonalEdgeStyle;rounded=0;orthogonalLoop=1;jettySize=auto;html=1;" edge="1" parent="dNxyNK7c78bLwvsdeMH5-21" source="oJV0aanpe1ZfETRmAdN7-31" target="oJV0aanpe1ZfETRmAdN7-34">
          <mxGeometry relative="1" as="geometry" />
        </mxCell>
        <mxCell id="oJV0aanpe1ZfETRmAdN7-31" value="" style="points=[[0.145,0.145,0],[0.5,0,0],[0.855,0.145,0],[1,0.5,0],[0.855,0.855,0],[0.5,1,0],[0.145,0.855,0],[0,0.5,0]];shape=mxgraph.bpmn.event;html=1;verticalLabelPosition=bottom;labelBackgroundColor=#ffffff;verticalAlign=top;align=center;perimeter=ellipsePerimeter;outlineConnect=0;aspect=fixed;outline=standard;symbol=timer;" vertex="1" parent="dNxyNK7c78bLwvsdeMH5-21">
          <mxGeometry x="510" y="143" width="50" height="50" as="geometry" />
        </mxCell>
        <mxCell id="oJV0aanpe1ZfETRmAdN7-32" style="edgeStyle=orthogonalEdgeStyle;rounded=0;orthogonalLoop=1;jettySize=auto;html=1;entryX=0;entryY=0.5;entryDx=0;entryDy=0;entryPerimeter=0;" edge="1" parent="dNxyNK7c78bLwvsdeMH5-21" source="oJV0aanpe1ZfETRmAdN7-29" target="oJV0aanpe1ZfETRmAdN7-31">
          <mxGeometry relative="1" as="geometry" />
        </mxCell>
        <mxCell id="oJV0aanpe1ZfETRmAdN7-33" value="5 min" style="text;html=1;align=center;verticalAlign=middle;resizable=0;points=[];autosize=1;strokeColor=none;fillColor=none;" vertex="1" parent="dNxyNK7c78bLwvsdeMH5-21">
          <mxGeometry x="510" y="186" width="50" height="30" as="geometry" />
        </mxCell>
        <mxCell id="oJV0aanpe1ZfETRmAdN7-37" value="" style="edgeStyle=orthogonalEdgeStyle;rounded=0;orthogonalLoop=1;jettySize=auto;html=1;" edge="1" parent="dNxyNK7c78bLwvsdeMH5-21" source="oJV0aanpe1ZfETRmAdN7-34" target="oJV0aanpe1ZfETRmAdN7-36">
          <mxGeometry relative="1" as="geometry" />
        </mxCell>
        <mxCell id="oJV0aanpe1ZfETRmAdN7-40" style="edgeStyle=orthogonalEdgeStyle;rounded=0;orthogonalLoop=1;jettySize=auto;html=1;entryX=0.5;entryY=0;entryDx=0;entryDy=0;entryPerimeter=0;" edge="1" parent="dNxyNK7c78bLwvsdeMH5-21" source="oJV0aanpe1ZfETRmAdN7-34" target="oJV0aanpe1ZfETRmAdN7-31">
          <mxGeometry relative="1" as="geometry">
            <mxPoint x="510" y="20" as="targetPoint" />
            <Array as="points">
              <mxPoint x="665" y="80" />
              <mxPoint x="535" y="80" />
            </Array>
          </mxGeometry>
        </mxCell>
        <mxCell id="oJV0aanpe1ZfETRmAdN7-34" value="" style="rhombus;whiteSpace=wrap;html=1;verticalAlign=top;labelBackgroundColor=#ffffff;" vertex="1" parent="dNxyNK7c78bLwvsdeMH5-21">
          <mxGeometry x="625" y="128" width="80" height="80" as="geometry" />
        </mxCell>
        <mxCell id="oJV0aanpe1ZfETRmAdN7-44" value="" style="edgeStyle=orthogonalEdgeStyle;rounded=0;orthogonalLoop=1;jettySize=auto;html=1;" edge="1" parent="dNxyNK7c78bLwvsdeMH5-21" source="oJV0aanpe1ZfETRmAdN7-36" target="oJV0aanpe1ZfETRmAdN7-43">
          <mxGeometry relative="1" as="geometry" />
        </mxCell>
        <mxCell id="oJV0aanpe1ZfETRmAdN7-46" value="" style="edgeStyle=orthogonalEdgeStyle;rounded=0;orthogonalLoop=1;jettySize=auto;html=1;" edge="1" parent="dNxyNK7c78bLwvsdeMH5-21" source="oJV0aanpe1ZfETRmAdN7-36" target="oJV0aanpe1ZfETRmAdN7-45">
          <mxGeometry relative="1" as="geometry" />
        </mxCell>
        <mxCell id="oJV0aanpe1ZfETRmAdN7-86" value="" style="edgeStyle=orthogonalEdgeStyle;rounded=0;orthogonalLoop=1;jettySize=auto;html=1;" edge="1" parent="dNxyNK7c78bLwvsdeMH5-21" source="oJV0aanpe1ZfETRmAdN7-36" target="oJV0aanpe1ZfETRmAdN7-43">
          <mxGeometry relative="1" as="geometry" />
        </mxCell>
        <mxCell id="oJV0aanpe1ZfETRmAdN7-36" value="" style="rhombus;whiteSpace=wrap;html=1;verticalAlign=top;labelBackgroundColor=#ffffff;" vertex="1" parent="dNxyNK7c78bLwvsdeMH5-21">
          <mxGeometry x="785" y="128" width="80" height="80" as="geometry" />
        </mxCell>
        <mxCell id="oJV0aanpe1ZfETRmAdN7-38" value="¿Orden lista?" style="text;html=1;align=center;verticalAlign=middle;resizable=0;points=[];autosize=1;strokeColor=none;fillColor=none;" vertex="1" parent="dNxyNK7c78bLwvsdeMH5-21">
          <mxGeometry x="615" y="198" width="100" height="30" as="geometry" />
        </mxCell>
        <mxCell id="oJV0aanpe1ZfETRmAdN7-42" value="¿Verificar si&amp;nbsp;&lt;br&gt;el producto esta&lt;br&gt;disponible?" style="text;html=1;align=center;verticalAlign=middle;resizable=0;points=[];autosize=1;strokeColor=none;fillColor=none;" vertex="1" parent="dNxyNK7c78bLwvsdeMH5-21">
          <mxGeometry x="770" y="198" width="110" height="60" as="geometry" />
        </mxCell>
        <mxCell id="oJV0aanpe1ZfETRmAdN7-43" value="Levantar orden y enviar a preparación" style="whiteSpace=wrap;html=1;verticalAlign=top;labelBackgroundColor=#ffffff;" vertex="1" parent="dNxyNK7c78bLwvsdeMH5-21">
          <mxGeometry x="925" y="138" width="120" height="60" as="geometry" />
        </mxCell>
        <mxCell id="oJV0aanpe1ZfETRmAdN7-48" style="edgeStyle=orthogonalEdgeStyle;rounded=0;orthogonalLoop=1;jettySize=auto;html=1;entryX=0.5;entryY=0;entryDx=0;entryDy=0;" edge="1" parent="dNxyNK7c78bLwvsdeMH5-21" source="oJV0aanpe1ZfETRmAdN7-45" target="oJV0aanpe1ZfETRmAdN7-43">
          <mxGeometry relative="1" as="geometry" />
        </mxCell>
        <mxCell id="oJV0aanpe1ZfETRmAdN7-45" value="Sugerir otro producto" style="whiteSpace=wrap;html=1;verticalAlign=top;labelBackgroundColor=#ffffff;" vertex="1" parent="dNxyNK7c78bLwvsdeMH5-21">
          <mxGeometry x="765" y="10" width="120" height="60" as="geometry" />
        </mxCell>
        <mxCell id="oJV0aanpe1ZfETRmAdN7-41" value="No" style="text;html=1;align=center;verticalAlign=middle;resizable=0;points=[];autosize=1;strokeColor=none;fillColor=none;" vertex="1" parent="dNxyNK7c78bLwvsdeMH5-21">
          <mxGeometry x="630" y="98" width="40" height="30" as="geometry" />
        </mxCell>
        <mxCell id="oJV0aanpe1ZfETRmAdN7-39" value="SI" style="text;html=1;align=center;verticalAlign=middle;resizable=0;points=[];autosize=1;strokeColor=none;fillColor=none;" vertex="1" parent="dNxyNK7c78bLwvsdeMH5-21">
          <mxGeometry x="700" y="143" width="30" height="30" as="geometry" />
        </mxCell>
        <mxCell id="oJV0aanpe1ZfETRmAdN7-53" value="Entregar la orden al cliente" style="whiteSpace=wrap;html=1;rounded=0;" vertex="1" parent="dNxyNK7c78bLwvsdeMH5-21">
          <mxGeometry x="1380" y="113" width="120" height="60" as="geometry" />
        </mxCell>
        <mxCell id="oJV0aanpe1ZfETRmAdN7-61" value="" style="edgeStyle=orthogonalEdgeStyle;rounded=0;orthogonalLoop=1;jettySize=auto;html=1;" edge="1" parent="dNxyNK7c78bLwvsdeMH5-21" source="oJV0aanpe1ZfETRmAdN7-55" target="oJV0aanpe1ZfETRmAdN7-60">
          <mxGeometry relative="1" as="geometry" />
        </mxCell>
        <mxCell id="oJV0aanpe1ZfETRmAdN7-55" value="" style="points=[[0.145,0.145,0],[0.5,0,0],[0.855,0.145,0],[1,0.5,0],[0.855,0.855,0],[0.5,1,0],[0.145,0.855,0],[0,0.5,0]];shape=mxgraph.bpmn.event;html=1;verticalLabelPosition=bottom;labelBackgroundColor=#ffffff;verticalAlign=top;align=center;perimeter=ellipsePerimeter;outlineConnect=0;aspect=fixed;outline=standard;symbol=timer;" vertex="1" parent="dNxyNK7c78bLwvsdeMH5-21">
          <mxGeometry x="1615" y="118" width="50" height="50" as="geometry" />
        </mxCell>
        <mxCell id="oJV0aanpe1ZfETRmAdN7-56" value="20 min" style="text;html=1;align=center;verticalAlign=middle;resizable=0;points=[];autosize=1;strokeColor=none;fillColor=none;" vertex="1" parent="dNxyNK7c78bLwvsdeMH5-21">
          <mxGeometry x="1605" y="168" width="60" height="30" as="geometry" />
        </mxCell>
        <mxCell id="oJV0aanpe1ZfETRmAdN7-57" style="edgeStyle=orthogonalEdgeStyle;rounded=0;orthogonalLoop=1;jettySize=auto;html=1;entryX=0;entryY=0.5;entryDx=0;entryDy=0;entryPerimeter=0;" edge="1" parent="dNxyNK7c78bLwvsdeMH5-21" source="oJV0aanpe1ZfETRmAdN7-53" target="oJV0aanpe1ZfETRmAdN7-55">
          <mxGeometry relative="1" as="geometry" />
        </mxCell>
        <mxCell id="oJV0aanpe1ZfETRmAdN7-63" style="edgeStyle=orthogonalEdgeStyle;rounded=0;orthogonalLoop=1;jettySize=auto;html=1;entryX=0;entryY=0.5;entryDx=0;entryDy=0;" edge="1" parent="dNxyNK7c78bLwvsdeMH5-21" source="oJV0aanpe1ZfETRmAdN7-60" target="oJV0aanpe1ZfETRmAdN7-29">
          <mxGeometry relative="1" as="geometry">
            <mxPoint x="320" y="180" as="targetPoint" />
            <Array as="points">
              <mxPoint x="1880" y="143" />
              <mxPoint x="1880" y="260" />
              <mxPoint x="280" y="260" />
              <mxPoint x="280" y="168" />
            </Array>
          </mxGeometry>
        </mxCell>
        <mxCell id="oJV0aanpe1ZfETRmAdN7-66" value="" style="edgeStyle=orthogonalEdgeStyle;rounded=0;orthogonalLoop=1;jettySize=auto;html=1;entryX=0;entryY=0.5;entryDx=0;entryDy=0;" edge="1" parent="dNxyNK7c78bLwvsdeMH5-21" target="oJV0aanpe1ZfETRmAdN7-65">
          <mxGeometry relative="1" as="geometry">
            <mxPoint x="1770" y="100" as="sourcePoint" />
            <Array as="points">
              <mxPoint x="1770" y="40" />
            </Array>
          </mxGeometry>
        </mxCell>
        <mxCell id="oJV0aanpe1ZfETRmAdN7-60" value="" style="rhombus;whiteSpace=wrap;html=1;verticalAlign=top;labelBackgroundColor=#ffffff;" vertex="1" parent="dNxyNK7c78bLwvsdeMH5-21">
          <mxGeometry x="1730" y="103" width="80" height="80" as="geometry" />
        </mxCell>
        <mxCell id="oJV0aanpe1ZfETRmAdN7-65" value="Atención se retira" style="whiteSpace=wrap;html=1;verticalAlign=top;labelBackgroundColor=#ffffff;" vertex="1" parent="dNxyNK7c78bLwvsdeMH5-21">
          <mxGeometry x="1874" y="10" width="120" height="60" as="geometry" />
        </mxCell>
        <mxCell id="oJV0aanpe1ZfETRmAdN7-72" value="Limpiar el lugar" style="whiteSpace=wrap;html=1;" vertex="1" parent="dNxyNK7c78bLwvsdeMH5-21">
          <mxGeometry x="2341" y="30" width="120" height="60" as="geometry" />
        </mxCell>
        <mxCell id="oJV0aanpe1ZfETRmAdN7-75" style="edgeStyle=orthogonalEdgeStyle;rounded=0;orthogonalLoop=1;jettySize=auto;html=1;entryX=0;entryY=0.5;entryDx=0;entryDy=0;entryPerimeter=0;" edge="1" parent="dNxyNK7c78bLwvsdeMH5-21" source="oJV0aanpe1ZfETRmAdN7-72" target="oJV0aanpe1ZfETRmAdN7-78">
          <mxGeometry relative="1" as="geometry">
            <mxPoint x="2489.9999999999995" y="60" as="targetPoint" />
          </mxGeometry>
        </mxCell>
        <mxCell id="oJV0aanpe1ZfETRmAdN7-78" value="" style="points=[[0.145,0.145,0],[0.5,0,0],[0.855,0.145,0],[1,0.5,0],[0.855,0.855,0],[0.5,1,0],[0.145,0.855,0],[0,0.5,0]];shape=mxgraph.bpmn.event;html=1;verticalLabelPosition=bottom;labelBackgroundColor=#ffffff;verticalAlign=top;align=center;perimeter=ellipsePerimeter;outlineConnect=0;aspect=fixed;outline=end;symbol=terminate2;" vertex="1" parent="dNxyNK7c78bLwvsdeMH5-21">
          <mxGeometry x="2530" y="35" width="50" height="50" as="geometry" />
        </mxCell>
        <mxCell id="oJV0aanpe1ZfETRmAdN7-87" value="SI" style="text;html=1;align=center;verticalAlign=middle;resizable=0;points=[];autosize=1;strokeColor=none;fillColor=none;" vertex="1" parent="dNxyNK7c78bLwvsdeMH5-21">
          <mxGeometry x="865" y="138" width="30" height="30" as="geometry" />
        </mxCell>
        <mxCell id="oJV0aanpe1ZfETRmAdN7-88" value="NO" style="text;html=1;align=center;verticalAlign=middle;resizable=0;points=[];autosize=1;strokeColor=none;fillColor=none;" vertex="1" parent="dNxyNK7c78bLwvsdeMH5-21">
          <mxGeometry x="785" y="103" width="40" height="30" as="geometry" />
        </mxCell>
        <mxCell id="dNxyNK7c78bLwvsdeMH5-22" value="Recepción" style="swimlane;html=1;startSize=20;horizontal=0;" parent="dNxyNK7c78bLwvsdeMH5-19" vertex="1">
          <mxGeometry x="20" y="580" width="2680" height="310" as="geometry" />
        </mxCell>
        <mxCell id="oJV0aanpe1ZfETRmAdN7-22" value="¿El cleinte desea&lt;br&gt;esperar?" style="text;html=1;align=center;verticalAlign=middle;resizable=0;points=[];autosize=1;strokeColor=none;fillColor=none;" vertex="1" parent="dNxyNK7c78bLwvsdeMH5-22">
          <mxGeometry x="510" y="80" width="120" height="40" as="geometry" />
        </mxCell>
        <mxCell id="oJV0aanpe1ZfETRmAdN7-10" value="" style="edgeStyle=orthogonalEdgeStyle;rounded=0;orthogonalLoop=1;jettySize=auto;html=1;" edge="1" parent="dNxyNK7c78bLwvsdeMH5-22" source="oJV0aanpe1ZfETRmAdN7-8" target="oJV0aanpe1ZfETRmAdN7-9">
          <mxGeometry relative="1" as="geometry" />
        </mxCell>
        <mxCell id="oJV0aanpe1ZfETRmAdN7-12" value="" style="edgeStyle=orthogonalEdgeStyle;rounded=0;orthogonalLoop=1;jettySize=auto;html=1;" edge="1" parent="dNxyNK7c78bLwvsdeMH5-22" source="oJV0aanpe1ZfETRmAdN7-9" target="oJV0aanpe1ZfETRmAdN7-11">
          <mxGeometry relative="1" as="geometry" />
        </mxCell>
        <mxCell id="oJV0aanpe1ZfETRmAdN7-9" value="Verificar Disponibilidad" style="whiteSpace=wrap;html=1;verticalAlign=top;labelBackgroundColor=#ffffff;" vertex="1" parent="dNxyNK7c78bLwvsdeMH5-22">
          <mxGeometry x="145" y="130" width="120" height="60" as="geometry" />
        </mxCell>
        <mxCell id="oJV0aanpe1ZfETRmAdN7-11" value="" style="rhombus;whiteSpace=wrap;html=1;verticalAlign=top;labelBackgroundColor=#ffffff;" vertex="1" parent="dNxyNK7c78bLwvsdeMH5-22">
          <mxGeometry x="365" y="120" width="80" height="80" as="geometry" />
        </mxCell>
        <mxCell id="oJV0aanpe1ZfETRmAdN7-18" value="" style="points=[[0.145,0.145,0],[0.5,0,0],[0.855,0.145,0],[1,0.5,0],[0.855,0.855,0],[0.5,1,0],[0.145,0.855,0],[0,0.5,0]];shape=mxgraph.bpmn.event;html=1;verticalLabelPosition=bottom;labelBackgroundColor=#ffffff;verticalAlign=top;align=center;perimeter=ellipsePerimeter;outlineConnect=0;aspect=fixed;outline=end;symbol=terminate2;" vertex="1" parent="dNxyNK7c78bLwvsdeMH5-22">
          <mxGeometry x="670" y="135" width="50" height="50" as="geometry" />
        </mxCell>
        <mxCell id="oJV0aanpe1ZfETRmAdN7-20" value="¿Hay lugares&amp;nbsp;&lt;br&gt;disponibles?" style="text;html=1;align=center;verticalAlign=middle;resizable=0;points=[];autosize=1;strokeColor=none;fillColor=none;" vertex="1" parent="dNxyNK7c78bLwvsdeMH5-22">
          <mxGeometry x="355" y="200" width="100" height="40" as="geometry" />
        </mxCell>
        <mxCell id="oJV0aanpe1ZfETRmAdN7-21" value="NO" style="text;html=1;align=center;verticalAlign=middle;resizable=0;points=[];autosize=1;strokeColor=none;fillColor=none;" vertex="1" parent="dNxyNK7c78bLwvsdeMH5-22">
          <mxGeometry x="490" y="135" width="40" height="30" as="geometry" />
        </mxCell>
        <mxCell id="oJV0aanpe1ZfETRmAdN7-17" style="edgeStyle=orthogonalEdgeStyle;rounded=0;orthogonalLoop=1;jettySize=auto;html=1;entryX=0.5;entryY=1;entryDx=0;entryDy=0;" edge="1" parent="dNxyNK7c78bLwvsdeMH5-22" source="oJV0aanpe1ZfETRmAdN7-15" target="oJV0aanpe1ZfETRmAdN7-9">
          <mxGeometry relative="1" as="geometry">
            <mxPoint x="160" y="280" as="targetPoint" />
            <Array as="points">
              <mxPoint x="565" y="260" />
              <mxPoint x="205" y="260" />
            </Array>
          </mxGeometry>
        </mxCell>
        <mxCell id="oJV0aanpe1ZfETRmAdN7-15" value="" style="rhombus;whiteSpace=wrap;html=1;verticalAlign=top;labelBackgroundColor=#ffffff;" vertex="1" parent="dNxyNK7c78bLwvsdeMH5-22">
          <mxGeometry x="525" y="120" width="80" height="80" as="geometry" />
        </mxCell>
        <mxCell id="oJV0aanpe1ZfETRmAdN7-16" value="" style="edgeStyle=orthogonalEdgeStyle;rounded=0;orthogonalLoop=1;jettySize=auto;html=1;" edge="1" parent="dNxyNK7c78bLwvsdeMH5-22" source="oJV0aanpe1ZfETRmAdN7-11" target="oJV0aanpe1ZfETRmAdN7-15">
          <mxGeometry relative="1" as="geometry" />
        </mxCell>
        <mxCell id="oJV0aanpe1ZfETRmAdN7-19" style="edgeStyle=orthogonalEdgeStyle;rounded=0;orthogonalLoop=1;jettySize=auto;html=1;entryX=0;entryY=0.5;entryDx=0;entryDy=0;entryPerimeter=0;" edge="1" parent="dNxyNK7c78bLwvsdeMH5-22" source="oJV0aanpe1ZfETRmAdN7-15" target="oJV0aanpe1ZfETRmAdN7-18">
          <mxGeometry relative="1" as="geometry" />
        </mxCell>
        <mxCell id="oJV0aanpe1ZfETRmAdN7-23" value="NO" style="text;html=1;align=center;verticalAlign=middle;resizable=0;points=[];autosize=1;strokeColor=none;fillColor=none;" vertex="1" parent="dNxyNK7c78bLwvsdeMH5-22">
          <mxGeometry x="620" y="133" width="40" height="30" as="geometry" />
        </mxCell>
        <mxCell id="oJV0aanpe1ZfETRmAdN7-24" value="SI" style="text;html=1;align=center;verticalAlign=middle;resizable=0;points=[];autosize=1;strokeColor=none;fillColor=none;" vertex="1" parent="dNxyNK7c78bLwvsdeMH5-22">
          <mxGeometry x="535" y="193" width="30" height="30" as="geometry" />
        </mxCell>
        <mxCell id="oJV0aanpe1ZfETRmAdN7-8" value="" style="points=[[0.145,0.145,0],[0.5,0,0],[0.855,0.145,0],[1,0.5,0],[0.855,0.855,0],[0.5,1,0],[0.145,0.855,0],[0,0.5,0]];shape=mxgraph.bpmn.event;html=1;verticalLabelPosition=bottom;labelBackgroundColor=#ffffff;verticalAlign=top;align=center;perimeter=ellipsePerimeter;outlineConnect=0;aspect=fixed;outline=standard;symbol=general;" vertex="1" parent="dNxyNK7c78bLwvsdeMH5-22">
          <mxGeometry x="50" y="135" width="50" height="50" as="geometry" />
        </mxCell>
        <mxCell id="oJV0aanpe1ZfETRmAdN7-26" value="Asignar un lugar al cliente" style="whiteSpace=wrap;html=1;verticalAlign=top;labelBackgroundColor=#ffffff;" vertex="1" parent="dNxyNK7c78bLwvsdeMH5-22">
          <mxGeometry x="345" y="40" width="120" height="60" as="geometry" />
        </mxCell>
        <mxCell id="oJV0aanpe1ZfETRmAdN7-27" value="" style="edgeStyle=orthogonalEdgeStyle;rounded=0;orthogonalLoop=1;jettySize=auto;html=1;" edge="1" parent="dNxyNK7c78bLwvsdeMH5-22" source="oJV0aanpe1ZfETRmAdN7-11" target="oJV0aanpe1ZfETRmAdN7-26">
          <mxGeometry relative="1" as="geometry" />
        </mxCell>
        <mxCell id="oJV0aanpe1ZfETRmAdN7-82" value="El cliente se retira" style="text;html=1;align=center;verticalAlign=middle;resizable=0;points=[];autosize=1;strokeColor=none;fillColor=none;" vertex="1" parent="dNxyNK7c78bLwvsdeMH5-22">
          <mxGeometry x="660" y="193" width="120" height="30" as="geometry" />
        </mxCell>
        <mxCell id="oJV0aanpe1ZfETRmAdN7-83" value="El cliente llega&lt;br&gt;a la cafeteria" style="text;html=1;align=center;verticalAlign=middle;resizable=0;points=[];autosize=1;strokeColor=none;fillColor=none;" vertex="1" parent="dNxyNK7c78bLwvsdeMH5-22">
          <mxGeometry x="25" y="188" width="100" height="40" as="geometry" />
        </mxCell>
        <mxCell id="oJV0aanpe1ZfETRmAdN7-30" value="" style="edgeStyle=orthogonalEdgeStyle;rounded=0;orthogonalLoop=1;jettySize=auto;html=1;" edge="1" parent="dNxyNK7c78bLwvsdeMH5-19" source="oJV0aanpe1ZfETRmAdN7-26" target="oJV0aanpe1ZfETRmAdN7-29">
          <mxGeometry relative="1" as="geometry" />
        </mxCell>
        <mxCell id="oJV0aanpe1ZfETRmAdN7-50" value="" style="edgeStyle=orthogonalEdgeStyle;rounded=0;orthogonalLoop=1;jettySize=auto;html=1;" edge="1" parent="dNxyNK7c78bLwvsdeMH5-19" source="oJV0aanpe1ZfETRmAdN7-43" target="oJV0aanpe1ZfETRmAdN7-49">
          <mxGeometry relative="1" as="geometry" />
        </mxCell>
        <mxCell id="oJV0aanpe1ZfETRmAdN7-54" value="" style="edgeStyle=orthogonalEdgeStyle;rounded=0;orthogonalLoop=1;jettySize=auto;html=1;" edge="1" parent="dNxyNK7c78bLwvsdeMH5-19" source="oJV0aanpe1ZfETRmAdN7-51" target="oJV0aanpe1ZfETRmAdN7-53">
          <mxGeometry relative="1" as="geometry" />
        </mxCell>
        <mxCell id="oJV0aanpe1ZfETRmAdN7-69" value="" style="edgeStyle=orthogonalEdgeStyle;rounded=0;orthogonalLoop=1;jettySize=auto;html=1;" edge="1" parent="dNxyNK7c78bLwvsdeMH5-19" source="oJV0aanpe1ZfETRmAdN7-65" target="oJV0aanpe1ZfETRmAdN7-68">
          <mxGeometry relative="1" as="geometry" />
        </mxCell>
        <mxCell id="oJV0aanpe1ZfETRmAdN7-73" value="" style="edgeStyle=orthogonalEdgeStyle;rounded=0;orthogonalLoop=1;jettySize=auto;html=1;exitX=1;exitY=0.5;exitDx=0;exitDy=0;" edge="1" parent="dNxyNK7c78bLwvsdeMH5-19" source="oJV0aanpe1ZfETRmAdN7-70" target="oJV0aanpe1ZfETRmAdN7-72">
          <mxGeometry relative="1" as="geometry" />
        </mxCell>
        <mxCell id="oJV0aanpe1ZfETRmAdN7-28" value="SI" style="text;html=1;align=center;verticalAlign=middle;resizable=0;points=[];autosize=1;strokeColor=none;fillColor=none;" vertex="1" parent="1">
          <mxGeometry x="545" y="636" width="30" height="30" as="geometry" />
        </mxCell>
        <mxCell id="oJV0aanpe1ZfETRmAdN7-62" value="¿El cliente necesita&amp;nbsp;&lt;br&gt;algo mas?" style="text;html=1;align=center;verticalAlign=middle;resizable=0;points=[];autosize=1;strokeColor=none;fillColor=none;" vertex="1" parent="1">
          <mxGeometry x="1845" y="613" width="130" height="40" as="geometry" />
        </mxCell>
        <mxCell id="oJV0aanpe1ZfETRmAdN7-64" value="SI" style="text;html=1;align=center;verticalAlign=middle;resizable=0;points=[];autosize=1;strokeColor=none;fillColor=none;" vertex="1" parent="1">
          <mxGeometry x="1945" y="538" width="30" height="30" as="geometry" />
        </mxCell>
        <mxCell id="oJV0aanpe1ZfETRmAdN7-81" value="El cliente se retira" style="text;html=1;align=center;verticalAlign=middle;resizable=0;points=[];autosize=1;strokeColor=none;fillColor=none;" vertex="1" parent="1">
          <mxGeometry x="2670" y="508" width="120" height="30" as="geometry" />
        </mxCell>
        <mxCell id="oJV0aanpe1ZfETRmAdN7-84" value="SI" style="text;html=1;align=center;verticalAlign=middle;resizable=0;points=[];autosize=1;strokeColor=none;fillColor=none;" vertex="1" parent="1">
          <mxGeometry x="515" y="798" width="30" height="30" as="geometry" />
        </mxCell>
        <mxCell id="oJV0aanpe1ZfETRmAdN7-85" value="NO" style="text;html=1;align=center;verticalAlign=middle;resizable=0;points=[];autosize=1;strokeColor=none;fillColor=none;" vertex="1" parent="1">
          <mxGeometry x="1860" y="498" width="40" height="30" as="geometry" />
        </mxCell>
      </root>
    </mxGraphModel>
  </diagram>
</mxfile>
